<svg id="logo" xmlns="http://www.w3.org/2000/svg" width="206.219" height="27.75" viewBox="0 0 206.219 27.75">
  <defs>
    <style>
      .cls-1 {
        fill: #5877ff;
      }

      .cls-1, .cls-2 {
        fill-rule: evenodd;
      }

      .cls-2 {
        fill: #fff;
      }
    </style>
  </defs>
  <path id="S" class="cls-1" d="M36.6,56.433a17.924,17.924,0,0,0,3.9-.41,9.977,9.977,0,0,0,3.389-1.436,7.166,7.166,0,0,0,3.223-5.967,5.726,5.726,0,0,0-.137-1.279,5.6,5.6,0,0,0-.42-1.182,8.016,8.016,0,0,0-.81-1.289,13.447,13.447,0,0,0-1.25-1.426,18,18,0,0,0-1.348-1.23L41.734,41.1q-1.5-1.172-2.207-1.768a10.282,10.282,0,0,1-1.133-1.094,3.489,3.489,0,0,1-.586-0.869,1.94,1.94,0,0,1-.156-0.762A1.637,1.637,0,0,1,38.658,35.2a5.1,5.1,0,0,1,2.529-.566,13.967,13.967,0,0,1,2.559.283,17.932,17.932,0,0,1,3.281,1.006q-0.293-2.812-.371-3.936T46.52,29.519a37.555,37.555,0,0,0-7.187-.762,19.818,19.818,0,0,0-3.262.264,9.907,9.907,0,0,0-2.969.986,7.234,7.234,0,0,0-2.227,1.719,7.113,7.113,0,0,0-1.26,2.139A6.714,6.714,0,0,0,29.2,36.2a6.581,6.581,0,0,0,.264,1.885,6.4,6.4,0,0,0,.842,1.748,11.7,11.7,0,0,0,1.615,1.855q0.509,0.488,1.8,1.582l3.68,3.2a5.249,5.249,0,0,1,.783.83,2.577,2.577,0,0,1,.372.684,2.05,2.05,0,0,1,.1.635A1.582,1.582,0,0,1,37.641,50.1a6.177,6.177,0,0,1-2.71.5,14.059,14.059,0,0,1-3-.381,20.978,20.978,0,0,1-3.9-1.357q0.332,2.5.586,6.66a44.313,44.313,0,0,0,7.988.918h0Z" transform="translate(-28.031 -28.75)"/>
  <path id="howNow" class="cls-2" d="M54.8,55.961q1.717,0,3.687.039,0.115-3.828.23-5.625a32.351,32.351,0,0,1,.606-4.9,6.253,6.253,0,0,1,.84-2.09,3.819,3.819,0,0,1,1.368-1.27,4.216,4.216,0,0,1,2.014-.469,2.825,2.825,0,0,1,2.043.742,3.5,3.5,0,0,1,.772,2.578q0,1.66-.252,5.049T65.523,56q2.149-.039,4.24-0.039,1.856,0,3.889.039,0-1.23.01-2.041t0.087-2.041l0.428-6.582q0.1-1.328.126-2.2t0.029-1.4a7.72,7.72,0,0,0-.391-2.51,4.736,4.736,0,0,0-1.484-2.07,6.272,6.272,0,0,0-2.645-1.3,13.772,13.772,0,0,0-3.211-.371,13.964,13.964,0,0,0-1.669.1,11.234,11.234,0,0,0-1.483.274,7.457,7.457,0,0,0-1.19.41,6.652,6.652,0,0,0-1.015.576,6.824,6.824,0,0,0-.907.742,13.081,13.081,0,0,0-1.054,1.221q0.212-3.574.309-4.746L60,29.34q-1.874.039-3.982,0.039-1.562,0-4.041-.039,0,2.988-.088,6.152t-0.265,6.6q-0.294,5.2-.569,9.121Q50.915,53.09,50.6,56q2.458-.039,4.195-0.039h0Zm29.77-19.58a11,11,0,0,0-4.033,2.373,9.5,9.5,0,0,0-2.383,3.477,11.108,11.108,0,0,0-.752,4.063,10.858,10.858,0,0,0,.772,4.063,8.826,8.826,0,0,0,2.3,3.32,10.167,10.167,0,0,0,3.818,2.109,16.2,16.2,0,0,0,9.873-.1,9.628,9.628,0,0,0,3.975-2.471,9.833,9.833,0,0,0,2.216-3.535,12.011,12.011,0,0,0,.655-3.975,10.869,10.869,0,0,0-.733-4.014A8.594,8.594,0,0,0,98,38.432a10.462,10.462,0,0,0-3.779-2.139,14.7,14.7,0,0,0-4.658-.742A15.2,15.2,0,0,0,84.566,36.381Zm6.943,5.5a3.3,3.3,0,0,1,1.279,1.563,5.848,5.848,0,0,1,.391,2.188,7.494,7.494,0,0,1-.5,2.744,3.98,3.98,0,0,1-1.475,1.934A3.874,3.874,0,0,1,89,50.961a3.544,3.544,0,0,1-2.7-1.143,4.627,4.627,0,0,1-1.074-3.291,7.194,7.194,0,0,1,.5-2.7,3.83,3.83,0,0,1,3.7-2.529A3.693,3.693,0,0,1,91.51,41.879Zm21.481,14.082q1.269,0,3.321.039,1.329-3.437,4.221-11.816,0.975,4.551,1.366,6.172L123.283,56q2.462-.039,4-0.039,1.406,0,3.438.039l1.249-3.086,7.181-16.855q-2.3.039-3.708,0.039-1.638,0-3.551-.039l-3.318,9.551q-0.468,1.348-.585,1.719l-0.312.977L127.427,47l-2.7-10.937q-1.582.039-3.672,0.039-1.974,0-3.867-.039l-2.806,8.223L113.092,48.3l-0.469-2.012-2.776-10.234q-1.642.039-3.461,0.039-1.935,0-3.851-.039Q104.823,42.25,109.143,56q2.383-.039,3.848-0.039h0Zm31.492,0q1.269,0,3.688.039l0.2-7.8,0.42-9.261q0.956,1.9,1.853,3.478,1.365,2.5,2.984,5.236l3.277,5.569q0.487,0.86,1.5,2.775,3.244-.039,5.082-0.039,2.208,0,4.749.039l0.117-4.668,0.879-16.172,0.469-5.82q-3.16.039-3.824,0.039-1.444,0-3.844-.039,0,2.267-.23,8.187t-0.451,9.2L160.205,44.5,151.867,29.34q-3.012.039-4.675,0.039-2.328,0-5.36-.039v3.047l-0.215,5.605L140.855,51.9l-0.39,4.1q2.946-.039,4.018-0.039h0Zm35.181-19.58a11,11,0,0,0-4.033,2.373,9.506,9.506,0,0,0-2.383,3.477,11.116,11.116,0,0,0-.752,4.063,10.849,10.849,0,0,0,.772,4.063,8.825,8.825,0,0,0,2.3,3.32,10.165,10.165,0,0,0,3.819,2.109,16.2,16.2,0,0,0,9.873-.1,9.628,9.628,0,0,0,3.974-2.471,9.83,9.83,0,0,0,2.217-3.535,12.036,12.036,0,0,0,.654-3.975,10.889,10.889,0,0,0-.732-4.014,8.6,8.6,0,0,0-2.275-3.262,10.466,10.466,0,0,0-3.78-2.139,14.7,14.7,0,0,0-4.658-.742A15.205,15.205,0,0,0,179.664,36.381Zm6.943,5.5a3.3,3.3,0,0,1,1.28,1.563,5.854,5.854,0,0,1,.39,2.188,7.5,7.5,0,0,1-.5,2.744,3.979,3.979,0,0,1-1.474,1.934,3.876,3.876,0,0,1-2.207.654,3.545,3.545,0,0,1-2.7-1.143,4.628,4.628,0,0,1-1.074-3.291,7.194,7.194,0,0,1,.5-2.7,3.831,3.831,0,0,1,3.7-2.529A3.691,3.691,0,0,1,186.607,41.879Zm21.482,14.082q1.269,0,3.32.039,1.329-3.437,4.222-11.816,0.975,4.551,1.365,6.172L218.381,56q2.461-.039,4-0.039,1.406,0,3.438.039l1.249-3.086,7.181-16.855q-2.3.039-3.708,0.039-1.639,0-3.552-.039l-3.317,9.551q-0.468,1.348-.586,1.719l-0.312.977L222.524,47l-2.7-10.937q-1.581.039-3.672,0.039-1.972,0-3.867-.039l-2.806,8.223L208.189,48.3l-0.469-2.012-2.776-10.234q-1.643.039-3.46,0.039-1.935,0-3.851-.039Q199.919,42.25,204.24,56q2.383-.039,3.849-0.039h0Z" transform="translate(-28.031 -28.75)"/>
</svg>
